<?xml version="1.0" standalone="no"?><!DOCTYPE svg PUBLIC "-//W3C//DTD SVG 1.1//EN" "http://www.w3.org/Graphics/SVG/1.1/DTD/svg11.dtd"><svg t="1774176950824" class="icon" viewBox="0 0 1024 1024" version="1.1" xmlns="http://www.w3.org/2000/svg" p-id="5395" xmlns:xlink="http://www.w3.org/1999/xlink" width="200" height="200"><path d="M554.794667 868.266667v75.946666a37.12 37.12 0 1 1-74.197334 0v-75.946666a37.12 37.12 0 1 1 74.197334 0z m-260.010667-77.482667l-52.48 53.077333a36.864 36.864 0 0 1-52.437333 0 37.802667 37.802667 0 0 1 0-53.12l52.48-53.077333a36.864 36.864 0 0 1 52.437333 0c14.506667 14.72 14.506667 38.4 0 53.12z m550.741333 53.077333a36.864 36.864 0 0 1-52.437333 0l-52.48-53.077333a37.76 37.76 0 0 1 0-53.12 36.864 36.864 0 0 1 52.48 0l52.48 53.12c14.506667 14.677333 14.506667 38.4 0 53.077333zM517.717333 267.946667c133.12 0 241.066667 109.226667 241.066667 244.053333 0 134.826667-107.946667 244.053333-241.066667 244.053333-133.162667 0-241.066667-109.226667-241.066666-244.053333 0-134.826667 107.904-244.053333 241.066666-244.053333z m0 75.093333a166.528 166.528 0 0 0-144.554666 84.48 170.752 170.752 0 0 0 0 168.96 166.528 166.528 0 0 0 144.554666 84.48c92.16 0 166.912-75.648 166.912-168.96 0-93.312-74.752-168.96-166.912-168.96zM981.333333 512a37.546667 37.546667 0 0 1-37.546666 37.546667h-73.258667a37.546667 37.546667 0 0 1 0-75.093334h73.258667A37.546667 37.546667 0 0 1 981.333333 512zM202.453333 512a37.546667 37.546667 0 0 1-37.546666 37.546667H91.605333a37.546667 37.546667 0 1 1 0-75.093334h73.301334a37.546667 37.546667 0 0 1 37.546666 37.546667z m645.888-281.6l-52.437333 53.12a36.864 36.864 0 0 1-52.48 0 37.802667 37.802667 0 0 1 0-53.12l52.48-53.077333a36.864 36.864 0 0 1 52.48 0c14.506667 14.677333 14.506667 38.4 0 53.077333zM291.968 283.52a36.864 36.864 0 0 1-52.437333 0L187.050667 230.4a37.802667 37.802667 0 0 1 0-53.12 36.821333 36.821333 0 0 1 52.48 0L291.968 230.4c14.506667 14.72 14.506667 38.4 0 53.12z m262.826667-203.776v76.032a37.12 37.12 0 1 1-74.197334 0V79.744a37.12 37.12 0 1 1 74.197334 0z" fill="#A6A6A6" p-id="5396"></path></svg>